<svg width="400" height="400" viewBox="0 0 400 400" fill="none" xmlns="http://www.w3.org/2000/svg">
<path d="M142.123 329.989L141.767 330.347C140.364 330.687 138.319 330.753 136.952 330.255C136.563 330.114 136.434 330.116 136.256 329.727C137.572 329.021 140.353 329.436 141.86 329.497L142.123 329.989Z" fill="black"/>
<path d="M114.396 116.003L114.842 117.089C114.196 121.649 114.453 128.159 114.538 132.867C109.548 132.894 103.858 132.446 99.0328 133.841L98.5352 133.154C103.696 132.157 108.622 132.191 113.841 132.201C114.128 126.807 113.457 121.347 114.396 116.003Z" fill="black"/>
<path d="M72.6898 166.263C73.207 160.655 74.1309 155.288 76.8258 150.265C81.5602 141.439 89.052 135.993 98.5344 133.154L99.032 133.841C93.509 135.088 88.2957 137.99 84.2129 141.891C77.1684 148.623 73.6102 157.337 73.416 167.015L57.1145 167.004C54.6996 167.005 51.5563 167.429 49.268 166.832L49.209 166.611C49.9031 166.088 69.9777 166.275 72.6898 166.263Z" fill="#1F244F"/>
<path d="M338.331 252.684C337.592 245.868 338.111 239.697 342.574 234.154C345.286 230.786 350.023 227.001 354.484 226.561C355.034 226.507 355.871 226.383 356.356 226.628C354.766 227.571 352.738 227.705 351.024 228.403C345.41 230.69 340.742 236.559 339.297 242.385C338.391 246.036 338.755 249.766 339.141 253.457C333.107 253.35 327.469 254.86 323.021 259.147C322.772 259.384 322.528 259.628 322.291 259.878C322.053 260.128 321.822 260.383 321.597 260.645C321.372 260.906 321.154 261.173 320.942 261.445C320.73 261.717 320.526 261.995 320.328 262.277C320.13 262.559 319.94 262.846 319.756 263.138C319.573 263.43 319.396 263.727 319.228 264.027C319.059 264.328 318.898 264.633 318.744 264.941C318.591 265.25 318.445 265.562 318.306 265.878C318.168 266.194 318.038 266.513 317.916 266.835C317.794 267.158 317.679 267.483 317.573 267.811C317.467 268.139 317.37 268.47 317.28 268.802C317.191 269.136 317.109 269.47 317.036 269.807C316.963 270.144 316.899 270.483 316.843 270.823C316.787 271.163 316.739 271.505 316.7 271.847C316.661 272.19 316.63 272.533 316.608 272.877C316.586 273.221 316.573 273.565 316.568 273.91C316.551 276.443 317.093 278.833 317.717 281.271L339.614 281.295C343.005 281.296 346.531 281.092 349.907 281.286C350.389 281.314 350.782 281.312 351.17 281.619L350.973 281.901C348.926 282.265 346.546 282.033 344.456 282.019L334.798 282.018C319.766 282.042 304.654 281.717 289.633 282.167L289.916 281.432C298.959 281.429 308.109 281.688 317.137 281.244C315.309 275.422 315.463 269.782 318.299 264.302C321.032 259.022 325.488 255.462 331.144 253.676C333.518 252.927 335.852 252.669 338.331 252.684Z" fill="#0050C8"/>
<path d="M66.0844 274.471C65.5773 274.517 65.2574 274.559 64.7676 274.381C64.6656 273.456 65.7492 269.289 65.7977 267.531C65.9566 261.751 63.5328 256.467 59.6109 252.326C56.4574 248.996 51.2891 246.062 46.6129 245.964C46.4016 245.959 46.1898 245.967 45.9789 245.953C45.4781 245.92 45.234 245.93 44.9004 245.526L45.0801 245.144C45.466 244.991 45.777 244.95 46.1859 244.975C51.4242 245.29 56.9508 248.187 60.4375 252.044C64.2766 256.291 66.8762 262.043 66.5875 267.86C66.4914 269.798 65.927 271.696 65.8301 273.637C67.593 273.615 69.4195 273.514 71.1723 273.71C75.8102 274.228 80.6109 276.645 83.9426 279.887C87.8844 283.722 90.3387 289.037 90.4004 294.563C90.4398 298.123 89.5992 301.236 88.1234 304.443C92.9152 304.457 97.8539 304.7 102.627 304.304L102.271 305.243C100.002 304.824 95.077 305.226 92.466 305.225L65.3227 305.093C60.5434 305.09 55.6508 305.385 50.8922 305.141C50.3875 305.114 49.8449 305.052 49.4547 304.706C50.8312 303.828 82.2242 304.4 87.1117 304.448C88.859 301.422 89.7605 298.087 89.6469 294.585C89.4652 288.98 86.8488 283.735 82.7398 279.966C77.9238 275.549 72.4664 274.211 66.0844 274.471Z" fill="#0050C8"/>
<path d="M165.246 45.3488C180.277 45.389 195.36 45.1077 210.384 45.4503C210.802 47.8089 210.572 50.5136 210.564 52.9156L210.541 65.9702L210.569 115.858L210.563 130.146C210.572 132.203 210.891 134.834 210.509 136.832L210.273 136.892C209.913 136.378 209.92 135.691 209.909 135.081C209.61 119.076 209.981 103.014 209.953 86.9999L209.921 60.707C209.926 56.5417 209.77 52.3077 209.948 48.1491C209.944 47.53 210.044 46.6886 209.711 46.1597C204.655 45.7245 199.014 46.0812 193.871 46.0863L165.992 46.0835C166.025 65.6734 165.733 85.2921 165.973 104.878L141.468 104.878C136.618 104.883 130.371 104.328 125.7 105.47C123.236 106.072 121.092 107.465 119.301 109.235C119.027 109.501 118.763 109.776 118.509 110.06C118.255 110.345 118.011 110.638 117.777 110.94C117.544 111.242 117.322 111.552 117.11 111.869C116.899 112.187 116.699 112.512 116.51 112.844C116.322 113.175 116.145 113.513 115.981 113.858C115.816 114.202 115.664 114.552 115.525 114.907C115.385 115.262 115.258 115.622 115.144 115.986C115.029 116.35 114.928 116.718 114.84 117.089L114.395 116.003C115.305 113.198 116.661 110.771 118.766 108.681C120.657 106.803 122.986 105.35 125.589 104.717C129.859 103.68 134.806 104.218 139.196 104.195C147.877 104.117 156.557 104.115 165.237 104.189L165.246 45.3488Z" fill="#1F244F"/>
<path d="M179.782 144.92C179.784 144.384 179.795 143.847 179.815 143.311C179.85 142.462 179.883 141.758 180.541 141.143C181.86 140.713 192.919 140.886 193.845 141.487C194.962 142.212 195.375 144.477 195.741 145.686C200.323 147.587 204.102 149.507 207.808 152.881C215.042 159.467 218.108 168.693 218.568 178.242C220.128 178.705 222.508 179.075 223.361 180.615C223.385 181.164 223.435 181.322 223.052 181.762C221.872 183.121 215.151 183.538 213.191 183.8L213.142 197.533C213.121 201.494 213.348 205.475 212.491 209.37C211.024 216.04 207.69 221.318 201.938 225.01C202.144 225.923 202.452 226.78 202.765 227.659C207.604 230.512 217.21 233.199 220.769 237.077C226.081 241.513 228.165 251.752 229.296 258.295C229.607 260.098 229.592 262.426 230.387 264.057C232.823 258.569 235.167 249.839 241.266 247.383C245.434 245.705 250.473 246.551 254.459 248.327C259.421 250.537 262.993 254.204 264.899 259.274C264.947 259.403 264.995 259.532 265.041 259.661C266.523 256.08 267.983 252.49 269.42 248.892C270.728 245.632 271.871 241.661 274.057 238.892C275.226 237.411 276.727 236.335 278.461 235.616C282.755 233.836 287.878 234.389 292.081 236.168C295.983 237.821 299.562 240.797 301.144 244.82C301.779 246.433 302.121 248.387 301.822 250.101C301.264 253.293 299.477 256.379 298.326 259.402C295.54 266.718 292.979 274.236 289.917 281.432L289.633 282.167C286.025 292.386 282.141 302.499 278.446 312.686C276.916 316.905 275.315 321.08 273.954 325.36C275.622 324.936 277.269 324.479 278.985 324.301C279.028 324.296 279.07 324.29 279.112 324.285C280.109 328.265 280.356 336.184 279.622 340.22C279.314 341.92 278.744 343.584 277.854 345.07C276.105 347.993 273.25 349.928 269.956 350.712C266.983 351.419 263.756 351.282 261.085 349.672C258.957 348.39 257.417 346.375 256.843 343.95C256.038 340.552 256.953 336.579 258.803 333.664C261.81 328.924 267.008 327.077 272.229 325.758L289.039 280.227C291.98 272.377 295.117 264.607 297.91 256.702C293.768 259.042 289.465 259.642 284.828 258.387C280.472 257.208 276.36 254.031 274.163 250.084C273.253 248.45 272.755 246.75 272.487 244.904C268.89 252.934 266.092 261.33 262.801 269.49L250.819 299.46C248.114 306.156 245.27 312.801 242.663 319.535C239.44 327.861 236.101 336.172 232.711 344.431L230.048 350.926C229.724 351.736 229.501 352.656 229.105 353.427C228.849 353.927 228.494 354.327 228.052 354.672L227.644 354.669C227.53 353.786 227.896 352.842 228.198 352.018C231.733 342.393 235.998 332.978 239.787 323.443C247.219 304.738 254.462 285.909 262.256 267.354C258.388 270.011 253.822 271.262 249.15 270.401C244.578 269.559 239.929 266.721 237.331 262.832C236.067 260.938 235.519 259.015 235.059 256.811C232.856 261.404 231.066 266.269 229.105 270.975C226.594 277.004 223.926 282.969 221.385 288.986L202.413 332.727C199.343 339.843 196.5 347.639 193.074 354.521C186.716 354.577 180.227 354.876 173.881 354.649C173.845 352.034 173.436 333.333 174.295 332.376C174.335 332.333 174.384 332.299 174.428 332.26C174.551 332.066 174.083 330.396 174.008 330.054C167.47 329.883 160.891 330.045 154.348 329.981C151.022 329.949 145.183 329.529 142.125 329.989L141.861 329.497C141.926 327.442 141.903 325.421 141.817 323.367C141.697 321.017 141.695 318.555 141.887 316.209C142.169 312.933 141.979 309.518 141.98 306.223L141.983 287.526L141.987 270.415C141.986 267.226 142.17 263.899 141.838 260.729C141.639 258.822 141.048 257.077 139.971 255.48C139.867 255.323 139.759 255.17 139.647 255.019C139.536 254.868 139.42 254.72 139.301 254.575C139.182 254.43 139.059 254.288 138.933 254.149C138.807 254.01 138.677 253.875 138.544 253.742C138.41 253.61 138.274 253.481 138.134 253.356C137.994 253.23 137.851 253.109 137.706 252.991C137.56 252.873 137.411 252.758 137.259 252.647C137.107 252.537 136.953 252.43 136.795 252.327C136.638 252.225 136.479 252.126 136.317 252.031C136.155 251.937 135.99 251.846 135.824 251.76C135.657 251.674 135.488 251.592 135.317 251.514C135.146 251.436 134.973 251.362 134.799 251.293C134.624 251.224 134.448 251.16 134.27 251.1C134.092 251.04 133.913 250.984 133.732 250.933C133.551 250.882 133.37 250.836 133.187 250.794C133.003 250.753 132.819 250.715 132.635 250.683C128.118 249.87 124.731 251.583 121.116 254.086C118.502 258.636 117.274 264.032 115.66 269.005L108.176 291.828L98.8252 320.063C97.5014 324.186 95.7873 328.491 94.9217 332.716C94.8493 333.059 94.7872 333.403 94.7353 333.749C94.6835 334.095 94.642 334.442 94.6107 334.791C94.5795 335.139 94.5585 335.488 94.5478 335.838C94.5374 336.188 94.5373 336.538 94.5475 336.888C94.5576 337.237 94.5782 337.587 94.6092 337.935C94.6402 338.284 94.6814 338.631 94.733 338.977C94.7843 339.323 94.846 339.668 94.9182 340.01C94.99 340.353 95.0721 340.693 95.1642 341.03C96.2471 344.958 99.0916 349.306 102.708 351.343C104.311 352.245 106.771 352.824 107.981 354.222L107.905 354.455C105.213 354.693 102.199 352.748 100.204 351.077C99.9555 350.872 99.7126 350.66 99.4748 350.442C99.2373 350.224 99.0054 350 98.7791 349.77C98.553 349.541 98.3327 349.306 98.1182 349.065C97.9038 348.824 97.6956 348.578 97.4935 348.327C97.2917 348.075 97.0963 347.819 96.9072 347.558C96.7182 347.297 96.5357 347.031 96.36 346.761C96.1844 346.49 96.0158 346.216 95.8541 345.937C95.6921 345.658 95.5374 345.375 95.39 345.088C95.2426 344.802 95.1024 344.512 94.9693 344.218C94.8365 343.924 94.7113 343.627 94.5935 343.327C94.4756 343.027 94.3653 342.724 94.2627 342.418C94.1601 342.113 94.0653 341.805 93.9783 341.495C93.8911 341.184 93.8119 340.871 93.7408 340.557C93.6695 340.243 93.606 339.927 93.5506 339.609C93.4954 339.291 93.4481 338.973 93.4088 338.653C93.3697 338.333 93.3386 338.012 93.3154 337.69C93.2537 336.867 93.2472 336.043 93.2959 335.219C93.3446 334.395 93.4481 333.578 93.6064 332.767C94.2549 329.363 95.5244 326.01 96.606 322.721C98.5158 316.913 100.521 311.099 102.271 305.243L102.628 304.304C103.343 301.504 104.508 298.676 105.409 295.913C107.515 289.356 109.679 282.818 111.902 276.3C114.441 268.777 116.69 258.858 120.635 252.097C124.883 244.814 131.865 238.485 139.962 235.828C143.44 234.686 147.186 234.141 150.766 233.379C156.648 232.162 162.501 230.818 168.324 229.345C168.345 221.765 168.508 214.143 168.231 206.568C167 205.956 165.786 205.258 164.751 204.345C162.476 202.339 161.896 199.693 160.921 196.971C159.315 192.489 157.891 188.401 157.586 183.594C155.641 183.461 153.651 183.182 151.772 182.657C150.389 182.27 148.529 181.645 147.8 180.341C147.812 180.102 147.77 179.847 147.911 179.643C148.793 178.368 151.113 177.855 152.526 177.563C152.622 169.923 154.247 162.691 159.006 156.554C164.503 149.464 170.962 146.017 179.782 144.92Z" fill="black"/>
<path d="M220.768 237.077C226.08 241.513 228.163 251.752 229.294 258.295C229.606 260.098 229.591 262.425 230.386 264.057C228.927 267.679 227.623 271.369 226.06 274.948C225.4 267.676 224.144 260.39 223.148 253.154C222.423 247.891 222.024 242.235 220.768 237.077Z" fill="#BAD6FF"/>
<path d="M175.174 336.368C180.291 336.374 185.407 336.417 190.523 336.497C193.437 336.518 196.417 336.392 199.322 336.576L192.247 353.309C186.566 353.457 180.858 353.384 175.176 353.298C175.039 347.663 175.153 342.006 175.174 336.368Z" fill="#FEFEFE"/>
<path d="M276.997 326.014C277.471 325.955 277.554 325.889 278.009 326.085C278.131 326.309 278.156 326.33 278.23 326.616C278.495 327.643 278.423 329.067 278.493 330.141C278.795 334.765 279.225 340.018 276.838 344.207C275.332 346.85 272.892 348.579 269.972 349.33C266.878 350.127 264.112 349.939 261.315 348.291C259.74 346.967 258.519 345.491 258.065 343.434C257.411 340.466 258.196 337.05 259.779 334.5C263.327 328.783 270.947 327.473 276.997 326.014Z" fill="#FEFEFE"/>
<path d="M244.504 247.909C248.283 247.617 251.851 248.329 255.209 250.115C258.698 251.97 262.408 255.137 263.513 259.086C263.546 259.201 263.577 259.317 263.604 259.433C263.631 259.549 263.656 259.666 263.677 259.784C263.698 259.901 263.717 260.019 263.732 260.138C263.748 260.256 263.76 260.374 263.77 260.494C263.779 260.613 263.786 260.732 263.789 260.851C263.793 260.97 263.793 261.09 263.791 261.209C263.788 261.329 263.783 261.448 263.774 261.567C263.766 261.686 263.754 261.805 263.74 261.924C263.725 262.042 263.708 262.16 263.687 262.278C263.667 262.396 263.644 262.513 263.617 262.629C263.591 262.746 263.561 262.861 263.529 262.977C263.497 263.091 263.462 263.205 263.424 263.319C263.387 263.432 263.346 263.544 263.302 263.655C263.259 263.767 263.212 263.877 263.163 263.986C263.114 264.095 263.063 264.202 263.008 264.309C262.954 264.415 262.896 264.52 262.837 264.623C261.311 267.209 258.347 268.291 255.61 269.04C250.889 269.729 246.826 268.931 242.799 266.293C239.821 264.343 237.204 261.209 236.543 257.631C236.159 255.553 236.374 253.543 237.63 251.79C239.249 249.53 241.843 248.368 244.504 247.909Z" fill="#FEFEFE"/>
<path d="M283.511 235.815C283.956 235.801 284.401 235.803 284.846 235.821C285.29 235.838 285.734 235.872 286.177 235.921C286.619 235.971 287.059 236.036 287.497 236.116C287.935 236.197 288.369 236.293 288.8 236.405C289.231 236.517 289.658 236.643 290.08 236.786C290.502 236.928 290.918 237.085 291.329 237.257C291.739 237.429 292.143 237.615 292.541 237.815C292.939 238.016 293.328 238.231 293.71 238.459C296.867 240.371 299.576 243.466 300.401 247.132C300.889 249.302 300.643 251.66 299.361 253.521C297.595 256.084 294.744 257.105 291.827 257.628C287.448 257.838 283.406 257.105 279.8 254.47C276.812 252.286 274.495 249.052 273.988 245.329C273.705 243.252 274.003 241.199 275.337 239.526C277.321 237.037 280.479 236.104 283.511 235.815Z" fill="#FEFEFE"/>
<path d="M141.816 323.367L205.045 323.383C203.047 327.72 201.441 332.315 199.322 336.576C196.417 336.392 193.436 336.518 190.523 336.496C185.407 336.416 180.291 336.374 175.174 336.368C175.196 335.33 175.37 333.951 175.107 332.962C174.982 332.489 174.834 332.487 174.427 332.26C174.55 332.066 174.082 330.396 174.007 330.053C167.47 329.883 160.89 330.044 154.347 329.981C151.021 329.948 145.182 329.528 142.124 329.989L141.86 329.497C141.925 327.441 141.902 325.421 141.816 323.367Z" fill="#BAD6FF"/>
<path d="M121.115 254.086C124.398 246.719 132.076 240.273 139.529 237.461C142.453 236.358 145.621 235.667 148.703 235.16C151.128 246.124 153.455 257.11 155.683 268.116L165.708 316.273L141.886 316.209C142.168 312.932 141.978 309.518 141.979 306.223L141.982 287.526L141.986 270.415C141.985 267.226 142.17 263.899 141.838 260.729C141.638 258.822 141.047 257.076 139.97 255.48C139.866 255.323 139.758 255.169 139.646 255.019C139.535 254.868 139.419 254.72 139.3 254.575C139.181 254.429 139.058 254.288 138.932 254.149C138.806 254.01 138.676 253.874 138.543 253.742C138.409 253.61 138.273 253.481 138.133 253.356C137.993 253.23 137.851 253.109 137.705 252.991C137.559 252.872 137.41 252.758 137.258 252.647C137.106 252.537 136.952 252.43 136.795 252.327C136.638 252.225 136.478 252.126 136.316 252.031C136.154 251.937 135.989 251.846 135.823 251.76C135.656 251.673 135.487 251.591 135.316 251.514C135.145 251.436 134.972 251.362 134.798 251.293C134.623 251.224 134.447 251.16 134.269 251.1C134.091 251.04 133.912 250.984 133.731 250.933C133.551 250.882 133.369 250.836 133.186 250.794C133.002 250.752 132.818 250.715 132.634 250.683C128.117 249.87 124.73 251.583 121.115 254.086Z" fill="#BAD6FF"/>
<path d="M181.607 142.152C183.886 142.105 191.4 142.043 193.129 142.772C195.748 146.009 197.721 158.849 197.981 163.167C198.084 164.864 197.621 168.609 198.232 169.937C198.385 170.272 198.301 170.154 198.702 170.285L199.081 170.005C199.483 168.972 199.387 167.696 199.398 166.599C199.466 159.923 198.119 153.71 196.468 147.293C200.405 149.056 204.174 151.158 207.293 154.182C214.398 161.073 216.959 169.745 217.153 179.372C218.817 179.798 220.417 180.292 222.03 180.883C219.805 181.636 217.614 181.948 215.282 182.18C210.382 182.613 205.473 182.88 200.555 182.982C193.093 183.128 154.752 183.028 150.346 180.817C149.941 180.614 149.893 180.606 149.736 180.166C150.484 179.107 152.444 178.983 153.631 178.755C154.202 169.419 154.97 163.431 161.266 155.999C166.744 149.531 172.684 146.947 181.001 146.284C181.349 144.959 181.439 143.514 181.607 142.152Z" fill="#FEFEFE"/>
<path d="M164.997 173.858C165.46 173.852 165.92 173.851 166.369 173.975C167.033 174.159 167.517 174.58 167.848 175.179C168.204 175.823 168.276 176.54 168.035 177.237C167.743 178.076 167.119 178.646 166.352 179.043C165.951 179.04 165.54 179.041 165.145 178.967C164.392 178.826 163.777 178.387 163.378 177.734C163.034 177.172 162.967 176.54 163.129 175.91C163.396 174.876 164.117 174.36 164.997 173.858Z" fill="#BAD6FF"/>
<path d="M184.523 151.618C184.693 151.677 184.832 151.714 184.987 151.816C186.178 152.591 186.666 159.157 186.794 160.772C186.936 162.573 187.385 168.689 186.253 170.017C185.803 169.693 185.605 169.53 185.538 168.967C185.246 166.513 185.732 163.777 185.628 161.276C185.509 158.439 184.659 155.691 184.198 152.91C184.094 152.284 184.167 152.139 184.523 151.618Z" fill="black"/>
<path d="M205.661 174.048C206.288 174.007 207.081 173.903 207.696 174.023C208.355 174.15 209.069 174.806 209.41 175.365C209.755 175.934 209.849 176.594 209.681 177.237C209.381 178.394 208.699 178.899 207.695 179.452C207.41 179.472 207.123 179.499 206.838 179.468C205.969 179.374 205.035 178.923 204.507 178.214C204.453 178.141 204.404 178.066 204.358 177.988C204.312 177.911 204.27 177.831 204.233 177.749C204.195 177.667 204.161 177.583 204.132 177.498C204.102 177.413 204.077 177.326 204.056 177.238C204.036 177.15 204.02 177.062 204.008 176.972C203.996 176.883 203.989 176.793 203.986 176.703C203.983 176.613 203.984 176.522 203.99 176.432C203.997 176.342 204.007 176.253 204.022 176.164C204.195 175.125 204.853 174.638 205.661 174.048Z" fill="#BAD6FF"/>
<path d="M186.6 176.204C188.277 176.157 192.302 175.498 193.547 176.791C194.061 177.323 194.071 178.123 193.96 178.807C193.77 179.988 193.237 180.492 192.28 181.139C190.896 181.185 189.459 181.302 188.076 181.217C187.066 181.155 186.021 180.905 185.368 180.077C184.976 179.579 184.905 178.802 185.016 178.2C185.192 177.251 185.829 176.703 186.6 176.204Z" fill="#BAD6FF"/>
<path d="M209.416 183.871C210.224 183.793 211.064 183.807 211.876 183.778L211.897 196.447C211.905 204.824 212.019 212.439 206.435 219.355C203.643 222.812 197.872 226.734 193.256 225.315C191.043 224.635 188.592 221.941 186.342 222.191C186.37 222.282 186.384 222.377 186.425 222.463C187.046 223.786 189.372 225.027 190.632 225.634C194.177 227.346 197.334 226.867 200.902 225.618C201.015 226.169 201.118 226.73 201.162 227.291C201.668 233.675 193.949 243.45 189.915 248.031L186.025 244.854C180.518 240.404 174.669 236.136 169.659 231.128C169.778 227.201 169.681 223.239 169.684 219.307C169.687 214.696 169.771 210.073 169.562 205.466C167.86 204.976 166.405 204.216 165.175 202.917C163.534 201.182 162.432 199.18 162.559 196.718C162.655 194.835 163.677 192.693 165.132 191.483C168.712 188.506 171.512 191.432 174.713 191.794C175.463 190.969 175.087 185.579 175.081 184.172C179.095 184.124 183.113 184.327 187.127 184.362C194.534 184.427 202.022 184.307 209.416 183.871Z" fill="#FEFEFE"/>
<path d="M185.743 190.818C186.287 190.767 186.835 190.723 187.323 191.02C187.723 191.263 187.993 191.636 188.044 192.107C188.135 192.941 187.7 193.449 187.186 194.027C186.541 194.114 185.969 194.115 185.461 193.641C185.07 193.276 184.914 192.814 184.945 192.286C184.985 191.608 185.283 191.276 185.743 190.818Z" fill="black"/>
<path d="M203.858 190.609C204.394 190.57 204.956 190.549 205.431 190.842C205.854 191.104 206.136 191.511 206.186 192.01C206.266 192.798 205.9 193.338 205.453 193.931C204.953 194.012 204.344 194.081 203.882 193.831C203.435 193.588 203.201 193.188 203.109 192.702C202.957 191.904 203.394 191.204 203.858 190.609Z" fill="black"/>
<path d="M192.062 209.299C193.108 209.514 194.085 210.384 195.038 210.868C197.424 212.08 198.503 211.245 200.845 210.591C201.357 210.448 201.586 210.418 202.053 210.669L202.184 211.393C200.743 212.3 199.329 212.695 197.621 212.692C195.89 212.689 193.594 212.289 192.399 210.951C191.892 210.384 192.001 209.974 192.062 209.299Z" fill="black"/>
<path d="M197.955 193.44L198.631 193.583C199.346 194.181 199.793 195.579 200.075 196.453C200.68 198.325 201.159 200.806 200.176 202.612C199.309 204.205 197.909 204.8 196.246 205.288C195.848 205.153 195.622 204.968 195.307 204.695L195.323 204.263C196.134 203.437 197.613 203.57 198.554 202.766C201.191 200.515 197.646 196.345 197.905 193.803C197.917 193.681 197.938 193.561 197.955 193.44Z" fill="black"/>
<path d="M202.353 229.02L202.636 229.177C204.224 230.055 212.429 233.124 212.777 234.275C212.934 234.793 212.935 235.453 212.98 235.997C213.948 239.517 214.196 243.482 214.76 247.105L219.012 274.908C219.601 278.9 219.804 283.141 220.702 287.06L208.247 316.28L173.202 316.313C167.293 289.34 162.004 262.24 155.996 235.286C155.849 234.725 155.58 234.098 155.781 233.532C158.387 232.572 164.531 231.744 167.607 231.017C172.868 235.937 178.441 240.411 184.063 244.902C186.024 246.468 187.9 248.3 189.964 249.705C194.856 246.378 201.226 234.733 202.353 229.02Z" fill="#BAD6FF"/>
<path d="M194.829 277.27C196.293 272.675 207.162 234.739 207.856 234.036C208.422 233.952 208.584 234.148 209.072 234.424C206.181 243.863 203.337 253.315 200.54 262.782L197.127 273.99C196.754 275.19 196.561 276.452 196.141 277.638C195.928 278.243 195.73 278.721 195.217 279.13C194.644 279.058 194.433 278.72 194.048 278.299C191.806 275.85 189.753 273.118 187.654 270.541C183.696 265.778 179.814 260.956 176.005 256.074C171.202 249.959 166.207 244 161.434 237.86C160.629 236.825 159.578 235.712 159.111 234.488L160.175 234.358C161.136 234.784 166.932 242.663 168.06 244.076C173.418 250.793 178.766 257.555 184.212 264.199C187.744 268.509 191.604 272.734 194.829 277.27Z" fill="black"/>
<path d="M202.353 229.02L202.636 229.177C204.224 230.055 212.429 233.124 212.777 234.275C212.934 234.793 212.935 235.453 212.98 235.997C212.847 236.214 212.947 236.11 212.62 236.239C211.431 235.649 210.248 235.044 209.073 234.424C208.585 234.148 208.423 233.952 207.857 234.036C207.163 234.739 196.294 272.675 194.83 277.27C191.605 272.734 187.745 268.509 184.213 264.199C178.768 257.555 173.419 250.793 168.061 244.076C166.934 242.663 161.137 234.784 160.176 234.358L159.112 234.488C158.084 234.757 157.037 235.083 155.996 235.286C155.849 234.725 155.58 234.098 155.781 233.532C158.387 232.572 164.531 231.744 167.607 231.017C172.868 235.937 178.441 240.411 184.063 244.902C186.024 246.468 187.9 248.3 189.964 249.705C194.856 246.378 201.226 234.733 202.353 229.02Z" fill="#FEFEFE"/>
</svg>
