<svg xmlns="http://www.w3.org/2000/svg" version="1.1" xmlns:xlink="http://www.w3.org/1999/xlink" width="2000" height="158" viewBox="0 0 2000 158"><svg xml:space="preserve" width="2000" height="158" data-version="2" data-id="lg_puLw2Boqq3fmUvcEi0" viewBox="0 0 774 158" x="0" y="0"><rect width="100%" height="100%" fill="transparent"></rect><path fill="#0050c8" d="M241.403 111.17q-4.83 0-9-1.06t-6.66-2.56q-2.49-1.51-2.49-2.74 0-.69.57-1.83.57-1.13 1.31-2.02.74-.89 1.18-.89.4 0 1.73.79 3.05 1.58 6.06 2.62 3.01 1.03 7.3 1.03 3.35 0 5.97-1.28 2.61-1.28 4.07-3.62 1.45-2.35 1.45-5.4 0-3.26-1.75-5.4-1.75-2.15-4.24-3.41-2.49-1.26-7.22-3.13-5.13-1.97-8.12-3.67-2.98-1.7-5.08-4.96-2.09-3.25-2.09-8.63 0-4.68 2.41-8.41 2.42-3.72 6.86-5.79t10.21-2.07q2.61 0 5.96.71 3.36.72 5.75 1.95t2.39 2.71q0 .64-.52 1.75-.51 1.11-1.2 2-.69.89-1.09.89-.44 0-1.77-.74-2.22-1.19-4.39-1.9-2.17-.72-5.28-.72-5.08 0-8.21 2.62-3.13 2.61-3.13 7.3 0 2.81 1.38 4.63 1.38 1.83 3.5 2.91 2.12 1.09 5.92 2.52.24.05 1.13.39 5.23 2.02 8.56 3.92t5.67 5.45q2.34 3.55 2.34 9.08 0 5.17-2.39 9.02-2.39 3.85-6.81 5.89-4.41 2.05-10.28 2.05"></path><rect width="37.63" height="62.43" x="-18.82" y="-31.21" fill="none" rx="0" ry="0" transform="translate(242.57 80.45)"></rect><path fill="#0050c8" d="M287.713 110.83q-1.83 0-2.66-.47-.84-.47-.84-1.46V55.99h-16.87q-.94 0-1.33-.65-.39-.64-.39-1.97v-1.43q0-1.38.39-2 .39-.61 1.33-.61h41.13q.94 0 1.33.61.4.62.4 2v1.43q0 1.33-.4 1.97-.39.65-1.33.65h-16.52v52.91q0 1.93-3.55 1.93z"></path><rect width="44.58" height="61.5" x="-22.29" y="-30.75" fill="none" rx="0" ry="0" transform="translate(288.41 80.58)"></rect><path fill="#0050c8" d="M324.013 110.83q-3.55 0-3.55-1.93V51.94q0-1.38.64-2 .64-.61 2.02-.61h14.74q10.51 0 15.81 3.7 5.3 3.7 5.3 11.78 0 5.48-2.64 9.2-2.64 3.72-7.42 5.6v.34q2.57.89 4.22 3.43t3.67 7.52l6.86 17.31q.24.89.24 1.23 0 1.39-3.7 1.39h-.88q-1.33 0-2.3-.37-.96-.37-1.2-1.02l-6.66-17.21q-1.28-3.35-3.01-5.22-1.73-1.88-4.09-2.62-2.37-.74-5.97-.74h-7.89v25.25q0 1.93-3.5 1.93zm15.73-33.84q3.11 0 5.69-1.48 2.59-1.47 4.1-3.97 1.5-2.49 1.5-5.3 0-5.18-3.15-7.71-3.16-2.54-8.73-2.54h-10.95v21Z"></path><rect width="43.44" height="61.5" x="-21.72" y="-30.75" fill="none" rx="0" ry="0" transform="translate(342.68 80.58)"></rect><path fill="#0050c8" d="M370.313 110.83q-1.97 0-2.86-.37-.88-.37-.88-1.11 0-.35.24-1.19l20.77-57.65q.49-1.43 3.5-1.43h2.56q3.01 0 3.5 1.43l20.76 57.7q.25.54.25 1.14 0 1.48-3.7 1.48h-.74q-3.05 0-3.55-1.39l-5.13-14.4h-25.74l-5.03 14.4q-.44 1.39-3.5 1.39zm32.36-22.44-9.18-26.09q-.39-1.09-.64-2.47-.24-1.38-.44-2.66h-.2q-.59 3.3-1.33 5.13l-9.17 26.09Z"></path><rect width="51.58" height="61.75" x="-25.79" y="-30.88" fill="none" rx="0" ry="0" transform="translate(392.86 80.45)"></rect><path fill="#0050c8" d="M439.552 110.83q-1.82 0-2.66-.47-.84-.47-.84-1.46V55.99h-16.86q-.94 0-1.33-.65-.4-.64-.4-1.97v-1.43q0-1.38.4-2 .39-.61 1.33-.61h41.13q.93 0 1.33.61.39.62.39 2v1.43q0 1.33-.39 1.97-.4.65-1.33.65h-16.52v52.91q0 1.93-3.55 1.93z"></path><rect width="44.58" height="61.5" x="-22.29" y="-30.75" fill="none" rx="0" ry="0" transform="translate(440.25 80.58)"></rect><path fill="#0050c8" d="M495.822 111.17q-13.16 0-20.07-7.99-6.9-7.99-6.9-23.37 0-15.34 6.88-23.21 6.88-7.86 20.09-7.86 13.27 0 20.18 7.86 6.9 7.87 6.9 23.21 0 15.38-6.9 23.37-6.91 7.99-20.18 7.99m0-6.66q9.28 0 14.21-6.33 4.93-6.34 4.93-18.37 0-12.04-4.91-18.23-4.9-6.19-14.23-6.19-9.27 0-14.15 6.19-4.88 6.19-4.88 18.23 0 12.08 4.88 18.39 4.88 6.31 14.15 6.31"></path><rect width="54.05" height="62.43" x="-27.02" y="-31.21" fill="none" rx="0" ry="0" transform="translate(496.38 80.45)"></rect><path fill="#0050c8" d="M539.082 110.68q-1.39 0-2.03-.64-.64-.65-.64-1.98V51.94q0-1.38.64-2 .64-.61 2.03-.61h15.68q6.41 0 10.8 1.92 4.39 1.92 6.61 5.43 2.22 3.5 2.22 8.13 0 2.86-1.34 5.7-1.33 2.83-3.55 4.88-2.22 2.05-4.73 2.74v.34q0-.34 3.4 1.31 3.4 1.65 6.14 4.88 2.74 3.23 2.74 8.36 0 17.66-22.88 17.66zm15.28-34.92q3.46 0 6.22-1.36 2.76-1.35 4.31-3.69 1.56-2.35 1.56-5.21 0-4.93-2.96-7.22t-9.47-2.29h-9.87v19.77Zm2.62 28.26q5.77 0 8.92-3.03 3.16-3.04 3.16-8.31 0-4.89-3.45-7.57-3.45-2.69-10.16-2.69h-11.3v21.6Z"></path><rect width="40.64" height="61.35" x="-20.32" y="-30.68" fill="none" rx="0" ry="0" transform="translate(557.23 80.5)"></rect><path fill="#0050c8" d="M611.133 111.17q-7.65 0-13.02-2.39-5.38-2.39-8.14-6.93-2.76-4.54-2.76-10.85V51.05q0-1.97 3.5-1.97h.69q3.5 0 3.5 1.97V91.3q0 3.84 2.12 6.85t5.82 4.69q3.7 1.67 8.29 1.67 4.63 0 8.33-1.7t5.8-4.71q2.09-3.01 2.09-6.8V51.05q0-1.97 3.5-1.97h.74q3.46 0 3.46 1.97V91q0 6.31-2.77 10.85-2.76 4.54-8.13 6.93-5.38 2.39-13.02 2.39"></path><rect width="47.84" height="62.09" x="-23.92" y="-31.05" fill="none" rx="0" ry="0" transform="translate(611.63 80.63)"></rect><path fill="#0050c8" d="M654.383 110.83q-3.55 0-3.55-1.93V51.05q0-1.97 3.55-1.97h.69q3.5 0 3.5 1.97v57.85q0 1.93-3.5 1.93z"></path><rect width="7.74" height="61.75" x="-3.87" y="-30.88" fill="none" rx="0" ry="0" transform="translate(655.2 80.45)"></rect><path fill="#0050c8" d="M678.253 110.68q-1.38 0-2.03-.64-.64-.65-.64-1.98V51.05q0-1.97 3.55-1.97h.69q3.51 0 3.51 1.97v52.97h24.11q.94 0 1.33.62.4.61.4 1.99v1.43q0 1.33-.4 1.98-.39.64-1.33.64z"></path><rect width="33.59" height="61.6" x="-16.8" y="-30.8" fill="none" rx="0" ry="0" transform="translate(692.88 80.38)"></rect><path fill="#0050c8" d="M720.662 110.68q-1.38 0-2.02-.64-.64-.65-.64-1.98V51.94q0-1.38.64-2 .64-.61 2.02-.61h17.7q12.33 0 19.73 7.3t7.4 23.32q0 16.13-7.4 23.43-7.4 7.3-19.73 7.3zm17.11-6.66q8.88 0 14.3-5.8 5.43-5.79 5.43-18.27 0-8.38-2.57-13.73-2.56-5.35-7-7.79-4.44-2.44-10.16-2.44h-12.03v48.03Z"></path><rect width="47.49" height="61.35" x="-23.75" y="-30.68" fill="none" rx="0" ry="0" transform="translate(742.25 80.5)"></rect><path fill="#0050c8" d="M176.264 1.47H7.51v29.005h10.547v89.651H83.31L64.82 149.64l6.67 4.253 20.398-32.577 20.395 32.577 6.669-4.253-18.487-29.514h65.253v-89.65h10.547zm-18.457 110.746H25.967v-81.74h131.84zm10.547-87.014H15.419V6.744h152.935z"></path><path fill="#0050c8" d="m61.643 68.788 6.512-6.513 6.513 6.513 2.795-2.795-6.513-6.513 6.513-6.513-2.795-2.795-6.513 6.513-6.512-6.513-2.796 2.795 6.513 6.513-6.513 6.513zm41.45 26.289a11.217 11.217 0 0 0 11.206 11.206 11.217 11.217 0 0 0 11.207-11.206 11.217 11.217 0 0 0-11.207-11.207 11.217 11.217 0 0 0-11.206 11.207m11.206-7.251a7.256 7.256 0 0 1 7.252 7.25 7.256 7.256 0 0 1-7.252 7.252 7.256 7.256 0 0 1-7.25-7.251 7.256 7.256 0 0 1 7.25-7.251m-22.267-4.227c7.936-10.394 9.695-21.482 9.911-29.393h9.559L99.987 38.148 88.472 54.206h10.04c-.236 7.91-1.9 17.788-9.186 27.33-7.865 10.295-20.393 16.597-37.237 18.704l.425 3.385c17.78-2.223 31.077-8.975 39.518-20.026"></path></svg></svg>